<mxfile host="65bd71144e">
    <diagram id="pIaEtrtLPv3HG8r1JEND" name="Page-1">
        <mxGraphModel dx="520" dy="475" grid="1" gridSize="10" guides="1" tooltips="1" connect="1" arrows="1" fold="1" page="1" pageScale="1" pageWidth="850" pageHeight="1100" math="0" shadow="0">
            <root>
                <mxCell id="0"/>
                <mxCell id="1" parent="0"/>
                <mxCell id="2" value="" style="rounded=0;whiteSpace=wrap;html=1;strokeColor=#D4D3F0;fillColor=#D4D3F0;" parent="1" vertex="1">
                    <mxGeometry x="80" y="70" width="400" height="300" as="geometry"/>
                </mxCell>
                <mxCell id="3" value="volume of a sphere" style="rounded=0;whiteSpace=wrap;html=1;fillColor=#5300C7;fontColor=#ffffff;strokeColor=#3700CC;" parent="1" vertex="1">
                    <mxGeometry x="80" y="70" width="400" height="40" as="geometry"/>
                </mxCell>
                <mxCell id="6" value="Calculate" style="labelPosition=center;verticalLabelPosition=middle;align=center;html=1;shape=mxgraph.basic.button;dx=10;fillColor=#5300C7;strokeColor=#000000;fontColor=#FFFFFF;" parent="1" vertex="1">
                    <mxGeometry x="90" y="240" width="100" height="40" as="geometry"/>
                </mxCell>
                <mxCell id="7" value="Insert&amp;nbsp; your sphere's dimensions here:" style="text;html=1;strokeColor=none;fillColor=none;align=center;verticalAlign=middle;whiteSpace=wrap;rounded=0;fontColor=#000000;" parent="1" vertex="1">
                    <mxGeometry x="80" y="133" width="150" height="30" as="geometry"/>
                </mxCell>
                <mxCell id="8" value="Radius (r):" style="text;html=1;strokeColor=none;fillColor=none;align=center;verticalAlign=middle;whiteSpace=wrap;rounded=0;fontColor=#000000;" parent="1" vertex="1">
                    <mxGeometry x="90" y="185" width="60" height="30" as="geometry"/>
                </mxCell>
                <mxCell id="10" value="" style="rounded=1;whiteSpace=wrap;html=1;fillColor=#E8E8E8;strokeColor=#000000;" parent="1" vertex="1">
                    <mxGeometry x="160" y="191" width="110" height="20" as="geometry"/>
                </mxCell>
                <mxCell id="11" value="insert value&amp;nbsp;" style="text;html=1;strokeColor=none;fillColor=none;align=center;verticalAlign=middle;whiteSpace=wrap;rounded=0;fontColor=#000000;" parent="1" vertex="1">
                    <mxGeometry x="160" y="188" width="110" height="30" as="geometry"/>
                </mxCell>
                <mxCell id="12" value="" style="ellipse;whiteSpace=wrap;html=1;aspect=fixed;fillColor=#969696;fontColor=#000000;" parent="1" vertex="1">
                    <mxGeometry x="350" y="200" width="80" height="80" as="geometry"/>
                </mxCell>
                <mxCell id="13" value="(image)" style="text;html=1;strokeColor=none;fillColor=none;align=center;verticalAlign=middle;whiteSpace=wrap;rounded=0;fontColor=#000000;" parent="1" vertex="1">
                    <mxGeometry x="360" y="225" width="60" height="30" as="geometry"/>
                </mxCell>
                <mxCell id="14" value="Formula:" style="text;html=1;strokeColor=none;fillColor=none;align=center;verticalAlign=middle;whiteSpace=wrap;rounded=0;fontColor=#000000;" parent="1" vertex="1">
                    <mxGeometry x="365" y="130" width="60" height="30" as="geometry"/>
                </mxCell>
                <mxCell id="16" value="Volume = ___ cm&lt;b style=&quot;font-family: &amp;#34;arial&amp;#34; , sans-serif ; font-size: 14px ; text-align: left&quot;&gt;³&lt;/b&gt;" style="text;html=1;strokeColor=none;fillColor=none;align=center;verticalAlign=middle;whiteSpace=wrap;rounded=0;fontColor=#000000;" parent="1" vertex="1">
                    <mxGeometry x="87" y="291" width="110" height="30" as="geometry"/>
                </mxCell>
                <mxCell id="17" value="Volume =&amp;nbsp; (4/3)*&lt;b style=&quot;font-family: arial, sans-serif; font-size: 14px; text-align: left;&quot;&gt;π*r&lt;/b&gt;&lt;b style=&quot;font-family: arial, sans-serif; font-size: 14px; text-align: left;&quot;&gt;³&lt;/b&gt;" style="text;html=1;strokeColor=none;fillColor=none;align=center;verticalAlign=middle;whiteSpace=wrap;rounded=0;fontColor=#000000;" parent="1" vertex="1">
                    <mxGeometry x="312" y="160" width="150" height="30" as="geometry"/>
                </mxCell>
            </root>
        </mxGraphModel>
    </diagram>
</mxfile>